<svg width="500" height="500" viewBox="0 0 500 500" fill="none" xmlns="http://www.w3.org/2000/svg">
<path d="M458.333 395.833C458.333 406.884 453.944 417.482 446.13 425.296C438.316 433.11 427.717 437.5 416.667 437.5H83.3334C72.2827 437.5 61.6846 433.11 53.8706 425.296C46.0566 417.482 41.6667 406.884 41.6667 395.833V104.167C41.6667 93.116 46.0566 82.5179 53.8706 74.7039C61.6846 66.8899 72.2827 62.5 83.3334 62.5H187.5L229.167 125H416.667C427.717 125 438.316 129.39 446.13 137.204C453.944 145.018 458.333 155.616 458.333 166.667V395.833Z" stroke="black" stroke-width="50" stroke-linecap="round" stroke-linejoin="round"/>
<path d="M113.477 285.387C113.477 268.915 117.155 255.797 124.512 246.031C131.934 236.266 142.057 231.383 154.883 231.383C165.169 231.383 173.665 235.224 180.371 242.906V189H208.691V339H183.203L181.836 327.77C174.805 336.559 165.755 340.953 154.688 340.953C142.253 340.953 132.259 336.07 124.707 326.305C117.22 316.474 113.477 302.835 113.477 285.387ZM141.699 287.438C141.699 297.333 143.424 304.918 146.875 310.191C150.326 315.465 155.339 318.102 161.914 318.102C170.638 318.102 176.79 314.423 180.371 307.066V265.367C176.855 258.01 170.768 254.332 162.109 254.332C148.503 254.332 141.699 265.367 141.699 287.438ZM257.031 233.336L257.91 245.152C265.397 235.973 275.521 231.383 288.281 231.383C301.888 231.383 311.23 236.754 316.309 247.496C323.73 236.754 334.31 231.383 348.047 231.383C359.505 231.383 368.034 234.736 373.633 241.441C379.232 248.082 382.031 258.108 382.031 271.52V339H353.711V271.617C353.711 265.628 352.539 261.266 350.195 258.531C347.852 255.732 343.717 254.332 337.793 254.332C329.329 254.332 323.47 258.368 320.215 266.441L320.312 339H292.09V271.715C292.09 265.595 290.885 261.168 288.477 258.434C286.068 255.699 281.966 254.332 276.172 254.332C268.164 254.332 262.37 257.652 258.789 264.293V339H230.566V233.336H257.031Z" fill="black"/>
</svg>
